<?xml version="1.0" encoding="utf-8"?>
<svg xmlns="http://www.w3.org/2000/svg" role="img" viewBox="-4.34 -4.34 800 98.682493" version="1.1" id="svg295" width="800" height="98.682495">
  <defs id="defs271">
    <style id="style269">.cls-1{fill:#fff}.cls-2{fill:#326ce5}</style>
    <clipPath id="argocd-original-e">
      <path d="M42 41h44v51H42zm0 0"/>
    </clipPath>
    <clipPath id="argocd-original-f">
      <path d="M85.695 41.133l-2.55 58.238H44.887l-2.125-58.238"/>
    </clipPath>
    <clipPath id="argocd-original-c">
      <path d="M0 0h128v128H0z"/>
    </clipPath>
    <mask id="argocd-original-h">
      <g filter="url(#argocd-original-a)">
        <path d="M0 0h128v128H0z" fill-opacity=".22"/>
      </g>
    </mask>
    <filter id="argocd-original-a" filterUnits="objectBoundingBox" x="0%" y="0%" width="100%" height="100%">
      <feColorMatrix in="SourceGraphic" values="0 0 0 0 1 0 0 0 0 1 0 0 0 0 1 0 0 0 1 0"/>
    </filter>
    <clipPath id="argocd-original-b">
      <path d="M0 0h128v128H0z"/>
    </clipPath>
    <mask id="argocd-original-j">
      <g filter="url(#argocd-original-a)">
        <path d="M0 0h128v128H0z" fill-opacity=".502"/>
      </g>
    </mask>
    <clipPath id="argocd-original-d">
      <path d="M0 0h128v128H0z"/>
    </clipPath>
    <mask id="argocd-original-l">
      <g filter="url(#argocd-original-a)">
        <path d="M0 0h128v128H0z" fill-opacity=".251"/>
      </g>
    </mask>
  </defs>
  <path d="M 385.519 63.519 C 385.519 63.519 384.881 65.405 383.917 66.348 C 383.349 66.97 382.53 67.316 381.677 67.292 C 380.097 67.708 378.49 68.023 376.868 68.234 C 376.868 68.234 379.112 68.549 381.677 68.864 C 382.637 68.864 382.637 68.864 383.278 69.179 C 384.881 69.179 385.519 68.234 385.519 68.234 L 385.519 63.519 Z M 415 63.519 C 415 63.519 415.641 65.405 416.602 66.348 C 417.172 66.97 417.992 67.315 418.845 67.292 C 420.424 67.709 422.03 68.023 423.65 68.234 C 423.65 68.234 421.409 68.549 418.525 68.864 C 417.564 68.864 417.564 68.864 416.922 69.179 C 415 69.179 414.679 68.234 414.679 68.234 L 415 63.519 Z M 415 63.519" fill="#e9654b" style="stroke-width: 1;"/>
  <path d="M 435.187 32.393 C 435.187 51.146 419.693 66.348 400.581 66.348 C 381.467 66.348 365.974 51.146 365.974 32.393 C 365.974 13.643 381.467 -1.558 400.581 -1.558 C 419.693 -1.558 435.187 13.643 435.187 32.393 Z M 435.187 32.393" fill="#b6cfea" style="stroke-width: 1;"/>
  <path d="M 433.906 32.393 C 433.906 50.453 418.987 65.09 400.581 65.09 C 382.178 65.09 367.258 50.453 367.258 32.393 C 367.258 14.337 382.178 -0.302 400.581 -0.302 C 418.987 -0.302 433.906 14.336 433.906 32.393 Z M 433.906 32.393" fill="#e6f5f8" style="stroke-width: 1;"/>
  <path d="M 427.816 33.023 C 427.816 47.783 415.624 59.746 400.581 59.746 C 385.539 59.746 373.344 47.783 373.344 33.023 C 373.344 18.266 385.54 6.3 400.581 6.3 C 415.624 6.3 427.816 18.267 427.816 33.023 Z M 427.816 33.023" fill="#d0e8f0" style="stroke-width: 1;"/>
  <path d="M 384.56 45.599 C 384.56 45.599 386.803 81.125 386.803 81.755 C 386.803 82.067 387.124 82.696 385.519 83.326 C 383.917 83.953 378.791 85.212 378.791 85.212 L 386.482 85.212 C 390.006 85.212 390.006 82.382 390.006 81.755 C 390.006 81.125 390.967 67.607 390.967 67.607 C 390.967 67.607 391.287 83.641 391.287 84.268 C 391.287 84.898 390.967 85.839 388.726 86.47 C 387.124 86.785 382.315 87.727 382.315 87.727 L 389.686 87.727 C 394.173 87.727 394.173 84.898 394.173 84.898 L 395.133 70.75 C 395.133 70.75 395.454 84.898 395.454 86.47 C 395.454 87.727 394.494 88.671 390.967 89.298 C 388.726 89.928 385.84 90.557 385.84 90.557 L 394.173 90.557 C 398.337 90.243 398.979 87.411 398.979 87.411 L 406.027 52.2 L 384.56 45.599 Z M 384.56 45.599" fill="#ee794b" style="stroke-width: 1;"/>
  <path d="M 416.602 45.599 C 416.602 45.599 414.361 81.125 414.361 81.755 C 414.361 82.067 414.039 82.696 415.642 83.326 C 417.243 83.953 422.37 85.212 422.37 85.212 L 414.679 85.212 C 411.154 85.212 411.154 82.382 411.154 81.755 C 411.154 81.125 410.194 67.607 410.194 67.607 C 410.194 67.607 409.873 83.641 409.873 84.268 C 409.873 84.898 410.194 85.839 412.438 86.47 L 418.845 87.727 L 411.476 87.727 C 406.991 87.727 406.991 84.898 406.991 84.898 L 406.028 70.75 C 406.028 70.75 405.707 84.898 405.707 86.47 C 405.707 87.727 406.67 88.671 410.195 89.298 C 412.438 89.928 415.321 90.557 415.321 90.557 L 406.991 90.557 C 402.824 90.243 402.182 87.411 402.182 87.411 L 395.134 52.201 L 416.602 45.599 Z M 416.922 28.308 C 416.922 37.111 409.552 44.027 400.901 44.027 C 392.25 44.027 384.88 36.796 384.88 28.308 C 384.88 19.82 392.25 12.589 400.901 12.589 C 409.552 12.589 416.922 19.505 416.922 28.308 Z M 416.922 28.308" fill="#ee794b" style="stroke-width: 1;"/>
  <g clip-path="url(#argocd-original-e)" transform="matrix(0.75379, 0, 0, 0.739584, 352.325592, -2.742715)" style="">
    <g clip-path="url(#argocd-original-f)">
      <path d="M102.273 53.46c0 20.895-16.937 37.833-37.832 37.833-20.894 0-37.832-16.938-37.832-37.832 0-20.895 16.938-37.832 37.832-37.832 20.895 0 37.832 16.937 37.832 37.832zm0 0" fill="#ee794b"/>
    </g>
  </g>
  <g clip-path="url(#argocd-original-c)" mask="url(#argocd-original-h)" transform="matrix(0.75379, 0, 0, 0.739584, 352.325592, -2.742715)" style="">
    <path d="M84.422 65.363s2.55-22.531-.852-31.031C77.195 19.453 62.316 20.73 62.316 20.73s8.5 3.399 8.926 16.153c.426 8.926 0 22.105 0 22.105zm0 0" fill="#e34e3b"/>
  </g>
  <g clip-path="url(#argocd-original-b)" mask="url(#argocd-original-j)" transform="matrix(0.75379, 0, 0, 0.739584, 352.325592, -2.742715)" style="">
    <path d="M58.488 30.508a2.974 2.974 0 11-5.948-.003 2.974 2.974 0 015.948.003zm0 0" fill="#fbdfc3"/>
  </g>
  <path d="M 406.349 51.885 C 406.349 57.23 403.784 60.691 400.581 60.691 C 397.377 60.691 394.812 56.603 394.812 51.259 C 394.812 51.259 397.377 56.288 400.901 56.288 C 404.426 56.288 406.349 51.885 406.349 51.885 Z M 406.349 51.885" fill="#010101" style="stroke-width: 1;"/>
  <path d="M 406.349 51.885 C 406.349 55.346 403.784 57.23 400.581 57.23 C 397.377 57.23 395.133 54.716 395.133 51.573 C 395.133 51.573 397.697 54.716 401.222 54.716 C 404.747 54.716 406.349 51.885 406.349 51.885 Z M 406.349 51.885" fill="#fff" style="stroke-width: 1;"/>
  <path d="M 421.727 37.111 C 421.727 42.493 417.282 46.855 411.796 46.855 C 406.31 46.855 401.861 42.493 401.861 37.111 C 401.861 31.728 406.31 27.363 411.796 27.363 C 417.282 27.363 421.727 31.728 421.727 37.111 Z M 399.299 37.111 C 399.299 42.493 394.85 46.855 389.364 46.855 C 383.879 46.855 379.433 42.493 379.433 37.111 C 379.433 31.728 383.879 27.363 389.365 27.363 C 394.85 27.363 399.3 31.728 399.3 37.111 L 399.299 37.111 Z M 399.299 37.111" fill="#e9654b" style="stroke-width: 1;"/>
  <path d="M 419.487 37.111 C 419.487 41.277 416.042 44.657 411.796 44.657 C 407.55 44.657 404.105 41.277 404.105 37.111 C 404.105 32.942 407.549 29.565 411.796 29.565 C 416.042 29.565 419.487 32.942 419.487 37.111 Z M 396.414 37.111 C 396.414 41.277 392.972 44.657 388.726 44.657 C 384.477 44.657 381.035 41.277 381.035 37.111 C 381.034 32.943 384.478 29.564 388.726 29.565 C 392.972 29.565 396.414 32.942 396.414 37.111 Z M 396.414 37.111" fill="#fff" style="stroke-width: 1;"/>
  <path d="M 390.967 36.167 C 390.968 37.86 389.1 38.919 387.604 38.073 C 386.91 37.681 386.482 36.954 386.482 36.169 C 386.481 34.475 388.349 33.415 389.844 34.261 C 390.539 34.654 390.967 35.38 390.967 36.166 L 390.967 36.167 Z M 414.039 36.167 C 414.072 37.86 412.223 38.953 410.711 38.133 C 409.984 37.739 409.539 36.982 409.554 36.167 C 409.585 34.473 411.474 33.447 412.953 34.321 C 413.615 34.711 414.025 35.408 414.039 36.166 L 414.039 36.167 Z M 414.039 36.167" fill="#010101" style="stroke-width: 1;"/>
  <path d="M 365.335 40.884 C 364.428 40.939 363.677 40.202 363.733 39.312 L 363.733 26.737 C 363.707 26.312 363.866 25.897 364.172 25.596 C 364.479 25.296 364.902 25.139 365.335 25.165 C 366.242 25.11 366.993 25.847 366.937 26.737 L 366.937 39.313 C 366.963 39.734 366.801 40.151 366.495 40.452 C 366.189 40.752 365.767 40.91 365.334 40.885 L 365.335 40.884 Z M 435.187 40.884 C 434.755 40.909 434.332 40.751 434.026 40.45 C 433.72 40.15 433.56 39.736 433.585 39.312 L 433.585 26.737 C 433.56 26.312 433.72 25.896 434.027 25.596 C 434.333 25.296 434.756 25.139 435.187 25.165 C 435.619 25.139 436.042 25.296 436.347 25.596 C 436.656 25.897 436.814 26.313 436.789 26.737 L 436.789 39.313 C 436.816 39.737 436.655 40.152 436.347 40.452 C 436.042 40.752 435.619 40.91 435.186 40.885 L 435.187 40.884 Z M 435.187 40.884" fill="#b6cfea" style="stroke-width: 1;"/>
  <path d="M 391.288 7.245 C 391.288 8.454 389.954 9.21 388.886 8.605 C 388.39 8.324 388.084 7.806 388.084 7.245 C 388.084 6.035 389.419 5.278 390.487 5.883 C 390.983 6.164 391.288 6.682 391.288 7.245 Z M 378.152 49.686 C 377.8 49.73 377.445 49.614 377.189 49.372 C 373.344 44.657 371.421 38.683 371.421 32.708 C 371.404 27.741 372.731 22.859 375.267 18.56 C 377.838 14.468 381.349 11.023 385.519 8.502 C 386.068 8.26 386.712 8.386 387.125 8.816 C 387.369 9.354 387.239 9.984 386.803 10.388 C 378.712 14.873 373.695 23.274 373.664 32.393 C 373.656 37.985 375.576 43.415 379.112 47.8 C 379.433 48.115 379.433 49.058 378.791 49.372 C 378.47 49.687 378.47 49.687 378.152 49.687 L 378.152 49.686 Z M 378.152 49.686" fill="#fff" style="stroke-width: 1;"/>
  <g clip-path="url(#argocd-original-d)" mask="url(#argocd-original-l)" transform="matrix(0.75379, 0, 0, 0.739584, 352.325592, -2.742715)" style="">
    <path d="M83.145 90.867V87.47c-5.95 3.398-12.329 6.8-19.977 6.8-8.504 0-14.031-3.824-19.555-6.8l.422 3.398s6.38 6.805 19.555 6.805c12.328-.426 19.555-6.805 19.555-6.805zm0 0" fill="#e9654b"/>
  </g>
</svg>